<?xml version="1.0" encoding="UTF-8"?> <!-- Generator: Adobe Illustrator 16.0.0, SVG Export Plug-In . SVG Version: 6.00 Build 0) --> <svg xmlns="http://www.w3.org/2000/svg" xmlns:xlink="http://www.w3.org/1999/xlink" id="Layer_1" x="0px" y="0px" width="74.542px" height="74.25px" viewBox="1.375 -2.646 74.542 74.25" xml:space="preserve"> <g> <g> <path fill="#FFFFFF" d="M64.828,9.26C57.934,2.366,48.754-1.433,39.004-1.433c-9.75,0-18.929,3.799-25.832,10.693 C6.271,16.153,2.471,25.333,2.471,35.091c0,9.757,3.8,18.929,10.701,25.832c6.902,6.902,16.073,10.701,25.832,10.701 c9.758,0,18.93-3.809,25.824-10.701c6.893-6.893,10.701-16.074,10.701-25.832C75.529,25.333,71.729,16.162,64.828,9.26z M63.637,59.733c-6.578,6.578-15.334,10.209-24.641,10.209c-9.307,0-18.055-3.623-24.642-10.209 C7.784,53.145,4.155,44.399,4.155,35.091c0-9.308,3.621-18.054,10.208-24.641c6.578-6.58,15.334-10.209,24.641-10.209 c9.307,0,18.055,3.63,24.633,10.209c6.578,6.578,10.209,15.333,10.209,24.641C73.846,44.399,70.225,53.145,63.637,59.733z"></path> <path fill="#FFFFFF" d="M62.42,22.528c0.23-0.825,0.357-1.657,0.375-2.474c0.061-2.38-0.799-4.352-2.396-5.567 c-1.539-1.165-3.57-1.462-5.738-0.858c-4.521-3.315-9.951-5.1-15.656-5.1c-5.406,0-10.556,1.606-14.925,4.582l-1.148-1.513 c-0.281-0.374-0.808-0.442-1.181-0.161c-0.374,0.28-0.442,0.807-0.161,1.181l1.121,1.496c-0.45,0.348-0.885,0.714-1.309,1.087 l-1.173-1.555c-0.28-0.374-0.809-0.442-1.181-0.162c-0.375,0.28-0.443,0.807-0.163,1.182l1.283,1.709 c-0.408,0.406-0.798,0.832-1.181,1.266l-1.471-1.946c-0.281-0.374-0.809-0.442-1.181-0.162c-0.374,0.281-0.443,0.808-0.163,1.183 l1.709,2.27c-0.365,0.475-0.714,0.951-1.036,1.453l-2.032-2.695c-0.28-0.373-0.808-0.441-1.182-0.161s-0.441,0.808-0.161,1.181 l2.422,3.214c-2.261,3.961-3.468,8.466-3.468,13.149c0,7.096,2.763,13.77,7.778,18.786c1.028,1.027,2.132,1.963,3.289,2.797 c-1.258,1.768-0.884,4.24,0.858,5.557c1.775,1.344,4.31,0.988,5.653-0.789l0.799-1.063c2.608,0.842,5.362,1.283,8.176,1.283 c2.848,0,5.627-0.451,8.262-1.309l0.842,1.053c1.344,1.777,3.875,2.135,5.652,0.791c1.76-1.326,2.125-3.832,0.824-5.602 c1.131-0.824,2.209-1.742,3.223-2.754c5.014-5.014,7.777-11.688,7.777-18.785C65.566,30.637,64.471,26.346,62.42,22.528z M59.387,15.83c2.48,1.879,2.285,6.333-0.434,9.945c-2.721,3.604-6.961,5.015-9.443,3.145c-2.482-1.878-2.287-6.332,0.434-9.945 C52.662,15.362,56.896,13.952,59.387,15.83z M39.004,10.211c5.082,0,9.816,1.54,13.762,4.166c-1.564,0.808-3,2.039-4.164,3.587 c-1.557,2.065-2.449,4.454-2.51,6.731c-0.041,1.896,0.492,3.536,1.521,4.743l-3.152,4.182c-1.615-0.577-3.492-0.076-4.582,1.369 l-0.824,1.087l-0.824-1.087c-1.087-1.445-2.967-1.946-4.582-1.369l-3.196-4.233c1.633-2.362,0.859-6.697-2.065-10.574 c-0.025-0.024-0.042-0.059-0.067-0.076l-3.213-4.258C29.068,11.775,33.854,10.211,39.004,10.211z M40.1,37.471L41.213,36 c0.783-1.036,2.262-1.24,3.299-0.459c1.037,0.783,1.24,2.262,0.459,3.299l-1.922,2.541L40.1,37.471z M28.592,28.92 c-1.717,1.292-5.169-0.221-7.795-3.332l6.732-5.082C29.798,23.889,30.308,27.619,28.592,28.92z M23.739,15.456l2.787,3.698 l-1.359,1.027l-2.737-3.629C22.846,16.17,23.288,15.805,23.739,15.456z M21.204,17.717l2.619,3.469l-1.359,1.028L20.033,19 C20.415,18.559,20.797,18.134,21.204,17.717z M18.961,20.361l2.167,2.863l-1.358,1.029l-1.82-2.406 C18.264,21.338,18.604,20.845,18.961,20.361z M14.116,35.091c0-4.216,1.056-8.186,2.907-11.67l1.896,2.516 c2.924,3.876,6.885,5.806,9.605,4.888l3.196,4.232c-1.004,1.395-1.029,3.34,0.059,4.786l2.21,2.924l-9.46,12.547 C18.231,50.799,14.116,43.413,14.116,35.091z M28.676,60.43c-0.781,1.037-2.261,1.24-3.297,0.459 c-1.038-0.783-1.24-2.262-0.46-3.299l10.132-13.422L38,48.079L28.676,60.43z M39.004,59.971c-2.465,0-4.844-0.365-7.096-1.037 l7.147-9.469l7.133,9.443C43.908,59.606,41.496,59.971,39.004,59.971z M52.723,60.889c-1.035,0.781-2.516,0.578-3.297-0.459 l-16.304-21.6c-0.781-1.037-0.578-2.516,0.46-3.297c1.037-0.782,2.515-0.578,3.298,0.459L53.182,57.59 C53.965,58.627,53.76,60.106,52.723,60.889z M53.539,55.27l-9.436-12.496l2.211-2.922c1.086-1.445,1.061-3.383,0.059-4.787 l3.154-4.183c1.438,0.664,3.162,0.731,4.973,0.162c2.176-0.68,4.225-2.184,5.789-4.25c0.508-0.672,0.943-1.377,1.299-2.107 c1.463,3.17,2.287,6.697,2.287,10.412C63.883,43.387,59.795,50.749,53.539,55.27z"></path> </g> </g> </svg> 